<!-- Retrieved from original site -->
<svg preserveAspectRatio="xMidYMid meet" data-bbox="33.505 8.5 132.992 182.999" viewBox="33.505 8.5 132.992 182.999" height="200" width="200" xmlns="http://www.w3.org/2000/svg" data-type="color" role="presentation" aria-hidden="true"><defs><style>#comp-kmtsx79j svg [data-color="1"] {fill: #FFFFFF;}</style></defs>
    <g>
        <path d="M102.299 39.135h.851c.948-.059 3.32-.178 5.631-.178 1.719 0 2.964.059 3.853.178 2.727.415 9.544 2.49 10.314 2.727l.237.059v.171c0 1.542.906 2.999 2.358 3.519 2.445.876 4.874-.955 4.874-3.394a3.593 3.593 0 0 0-3.616-3.616c-1.008 0-2.015.415-2.668 1.186l-1.008 1.067.415-1.245c-.889-.474-4.268-2.134-8.951-3.557-5.454-1.66-11.796-3.379-11.856-3.438l-.237-.296-.296-7.765.237-.059c1.838-.593 3.379-1.778 4.327-3.379h-.716c-1.072 0-2.858-.059-3.453-.356a4.636 4.636 0 0 1-2.918 1.067c-2.56 0-4.644-2.075-4.644-4.624s2.084-4.624 4.644-4.624c.595 0 1.191.119 1.727.356.655-.711 1.489-1.482 2.322-2.193-1.191-.711-2.56-1.126-3.989-1.126-4.228 0-7.621 3.438-7.621 7.588a7.618 7.618 0 0 0 5.657 7.35l.238.059-.298 7.706-.238.296c-.06 0-6.431 1.719-11.909 3.438-4.704 1.423-8.098 3.142-8.991 3.557l.417 1.245-1.012-1.067a3.625 3.625 0 0 0-3.322-1.13c-1.555.266-2.791 1.565-2.966 3.133-.265 2.378 1.707 4.317 4.104 4.012 1.818-.231 3.136-1.861 3.136-3.694v-.186l.238-.059c.774-.237 7.681-2.312 10.36-2.727.893-.119 2.144-.178 3.87-.178 2.322 0 4.763.119 5.657.178h.298v.296l-.595 13.634c3.453 1.541 5.835 2.786 6.431 3.142l-.892-17.073z" fill="#231F20" data-color="1"></path>
        <path d="M98.859 64.455c-.06 0-.961-.541-2.463-1.322l-4.445 100.944H90.93c-4.205.212-19.102-1.05-33.218-17.028-16.158-18.321-7.869-45.051-7.809-45.352l.12-.42 6.127 5.406c.18-2.403.961-11.293 2.343-16.639l4.145-16.279c-2.943 1.021-17.72 7.028-29.133 24.236h9.371l-.18.572c-.12.3-12.074 31.296.841 54.182 10.031 17.78 32.497 24.508 32.737 24.568.901.36 24.087 14.176 24.087 14.176v-.06l-.3.06c3.424-5.466 22.826-13.816 23.667-14.176.24-.06 22.706-6.848 32.737-24.628 12.915-22.826.961-53.821.841-54.182l-.18-.512h9.371c-11.413-17.268-26.19-23.275-29.133-24.296l4.145 16.279c1.382 5.286 2.162 14.236 2.343 16.639l6.127-5.406.12.42c.06.24 8.35 27.031-7.809 45.352-14.116 15.978-29.013 17.24-33.218 17.088h-.901v-.089l-4.445-97.491c-2.703-1.021-4.385-1.862-4.625-1.922l-.242-.12z" fill="#231F20" data-color="1"></path>
        <path d="M113.095 12.796c.541.481.721 1.922.721 3.184 0 .3 0 .961-.12 1.622.661-.12 1.682-.42 2.823-.541-.3-1.322-1.201-5.947.901-7.989-3.063.3-5.286.661-6.067.841l.12.541.961 2.102c.3.06.541.12.661.24z" fill="#231F20" data-color="1"></path>
        <path d="M139.885 61.572c-1.622.481-3.484.841-5.646 1.081-.06.06-.12.06-.24.12l-2.403 7.629v.481c3.304-.18 6.187-.541 8.71-1.141-.481-1.262-2.102-5.527-.421-8.17z" fill="#231F20" data-color="1"></path>
        <path d="M151.779 52.562c-.24.481-.541.901-.781 1.261-.901 1.141-2.042 2.643-3.724 4.025 0 .06-.06.12-.12.24l2.643 7.569c.06.06.12.06.18.12 3.184-2.102 5.466-4.565 7.328-7.028-3.544-1.262-5.045-4.686-5.526-6.187z" fill="#231F20" data-color="1"></path>
        <path d="M146.193 58.508c-1.382 1.021-3.124 1.982-5.406 2.763-.06.06-.12.12-.18.12V69.2c.06.18.12.3.18.36a30.28 30.28 0 0 0 8.41-3.484c-3.725-2.582-3.425-5.946-3.004-7.568z" fill="#231F20" data-color="1"></path>
        <path d="M133.038 62.802c-.841.06-1.682.12-2.643.12-1.401.061-2.802-.002-4.14-.063l-.124.063-4.866 7.148c0 .12-.06.24-.06.36 3.003.42 6.247.601 9.491.541h.42c-.121-1.321-.301-6.067 1.922-8.169z" fill="#231F20" data-color="1"></path>
        <path d="M55.85 50.699c-.06.06-.18.24-.3.42-.721 1.261-2.343 4.625-1.141 8.71 0 .06.06.18.06.24a35.008 35.008 0 0 1 9.13-3.484c.06-4.866 3.244-7.809 4.445-8.77-4.746.482-8.831 1.563-12.194 2.884z" fill="#231F20" data-color="1"></path>
        <path d="M70.867 47.965c-.721 0-1.382.06-2.042.12 0 0-4.205 4.085-4.505 8.289v.42a44.61 44.61 0 0 1 6.788-.841h1.141c1.141-4.625 4.685-6.848 6.067-7.509-2.464-.359-4.986-.539-7.449-.479z" fill="#231F20" data-color="1"></path>
        <path d="M78.916 48.297s-4.926 3.124-6.067 7.208c0 .06-.06.12-.06.24 2.883.06 5.767.541 8.53 1.201.18-.601 1.802-5.646 5.586-6.788-2.523-.78-5.226-1.441-7.989-1.861z" fill="#231F20" data-color="1"></path>
        <path d="M54.648 51.06c-4.625 1.922-7.689 4.145-8.95 5.106v.24c-.06 1.201.12 5.226 4.625 6.187.06 0 .12 0 .18.06.36-.3 1.442-1.141 3.244-2.223-1.441-4.264.06-7.808.901-9.37z" fill="#231F20" data-color="1"></path>
        <path d="M45.272 57.039s-.058.058 0 0l-.116.116h-.047c-.059 0-3.687.892-5.055 4.282-.535 1.368-.773 2.676-1.011 3.806-.357 1.725-.654 3.271-1.903 4.282-.773.595-1.427 1.071-1.903 1.368 2.438-.595 7.018-2.319 7.434-7.732h.484c0 .229-.057.4-.057.629-.687 4.634-4.577 6.465-7.037 7.151 2.403.057 6.35-.343 8.066-3.204l.229.172.229.172c-1.773 2.975-5.549 3.49-8.124 3.49h-.141c1.337.349 3.139.756 4.941.756 2.035 0 3.662-.465 4.825-1.453 3.372-2.848 4.069-6.627 4.185-7.615-4.418-.814-4.999-4.65-4.999-6.22z" fill="#231F20" data-color="1"></path>
        <path d="M103.904 57.307c-.12-.06-.24-.12-.3-.12-.12-.06-.24-.12-.3-.12-.12-.06-.24-.12-.3-.12-.481-.3-1.802-1.021-4.265-2.162l-.3.06c-.12 0-.18.06-.3.06-.541.12-1.021.3-1.442.601-.12.06-.18.18-.3.24-.12.12-.24.18-.3.3-1.322 1.322-1.982 3.364-2.223 4.385l-.18.781 2.102 1.081c.12.06.18.12.3.12.12.06.18.12.3.12 1.682.841 2.703 1.442 2.763 1.442l.24.12c.12.06 1.021.481 2.463 1.081-.06-.961-.06-3.724 1.502-5.586 0-.06.06-.06.06-.12l.3-.3c.12-.06.18-.18.3-.24a5.531 5.531 0 0 1 1.682-.841c-.72-.301-1.321-.542-1.802-.782z" fill="#231F20" data-color="1"></path>
        <path d="M106.547 58.357h-.24c-1.021.12-1.862.481-2.523 1.141l-.24.24-.06.06c-.12.12-.18.24-.3.42-1.021 1.622-1.021 3.784-1.021 4.625v.36c.36.18.781.3 1.201.481.12.06.18.06.3.12s.18.06.3.12c1.922.721 4.325 1.562 7.088 2.283.3-1.261 1.622-5.707 5.226-6.968-3.844-.84-7.268-1.981-9.731-2.882z" fill="#231F20" data-color="1"></path>
        <path d="M118.081 61.752c-.12 0-.18 0-.3.06-3.724.541-5.286 4.926-5.707 6.487 0 .12-.06.18-.06.24 2.643.721 5.526 1.322 8.65 1.802.24-1.261 1.201-5.887 4.325-7.569a47.453 47.453 0 0 1-6.908-1.02z" fill="#231F20" data-color="1"></path>
        <path d="M121.264 70.042l4.866-7.148c-3.244.96-4.505 5.466-4.866 7.148z" fill="#231F20" data-color="1"></path>
        <path d="M131.656 70.402l2.403-7.629c-2.403 1.382-2.463 5.827-2.403 7.629z" fill="#231F20" data-color="1"></path>
        <path d="M140.606 69.201v-7.809c-2.102 2.102-.66 6.247 0 7.809z" fill="#231F20" data-color="1"></path>
        <path d="M149.797 65.596l-2.643-7.569c-.421 1.082-1.502 4.806 2.643 7.569z" fill="#231F20" data-color="1"></path>
        <path d="M153.941 45.534c-.36 2.403-1.021 4.625-1.802 6.247 0 .12.06.3.18.541.42 1.382 1.862 4.625 5.106 5.827.12.06.18.06.3.12 1.322-1.922 2.643-4.745 3.484-7.989-3.243-.662-6.186-3.605-7.268-4.746z" fill="#231F20" data-color="1"></path>
        <path d="M153.881 37.845c.42 2.343.42 4.685.18 6.908.12.12.36.42.721.781 1.201 1.201 3.604 3.364 6.067 3.965.12.06.3.06.42.06.481-2.042.841-4.325.901-6.608-3.543-.661-6.847-3.665-8.289-5.106z" fill="#231F20" data-color="1"></path>
        <path d="M161.21 34c-.06-.06-.12-.18-.18-.24-1.201-1.261-5.526-2.102-8.41-2.463-.42-.06-.841-.12-1.141-.12.36.721.721 1.382 1.021 2.162.481 1.081.901 2.283 1.141 3.424l.841.841c1.382 1.382 4.265 3.844 7.268 4.685.12.06.3.06.42.12a27.016 27.016 0 0 0-.96-8.409z" fill="#231F20" data-color="1"></path>
        <path d="M159.768 29.976c-.901-1.982-1.922-3.965-3.124-5.887a.455.455 0 0 0-.24-.12c-2.943-1.622-7.028.42-8.53 1.322-.12.06-.18.12-.3.18 1.382 1.502 2.523 3.184 3.484 5.046 1.322.12 7.328.781 9.791 2.403-.24-1.022-.6-1.983-1.081-2.944z" fill="#231F20" data-color="1"></path>
        <path d="M149.917 16.761c-.06 0-.18-.06-.24-.06-3.544-1.081-6.968 2.583-8.049 3.904l-.18.18c2.343 1.201 4.205 2.643 5.707 4.265 1.021-.661 5.286-3.184 8.77-1.922-1.563-2.283-3.485-4.445-6.008-6.367z" fill="#231F20" data-color="1"></path>
        <path d="M141.447 12.104h-.24c-3.844-.24-5.827 4.385-6.367 5.947-.06.06-.06.18-.06.24.18.06.42.12.601.18a41.027 41.027 0 0 1 5.526 2.162c.721-.961 4.025-4.926 7.809-4.625-2.043-1.501-4.446-2.763-7.269-3.904z" fill="#231F20" data-color="1"></path>
        <path d="M137.723 10.602a42.457 42.457 0 0 0-7.208-1.502l-.176-.001c-3.488.416-4.63 5.526-4.93 7.329 0 .12-.06.18-.06.3 3.244.12 6.187.481 8.83 1.201.42-1.201 2.162-5.887 5.827-6.547-.721-.299-1.502-.539-2.283-.78z" fill="#231F20" data-color="1"></path>
        <path d="M126.791 8.772c-2.283-.12-7.989.24-8.049.24-2.523 1.141-1.922 5.947-1.562 7.689v-.06c0 .12 0 .18.06.24 3.184-.481 5.286-.36 7.869-.18.12-1.261.661-6.187 4.085-7.749-.782-.06-1.563-.12-2.403-.18z" fill="#231F20" data-color="1"></path>
        <path d="M111.473 11.835l-.541-1.201-.601-1.322c-.12-.18-1.141-1.261-3.003-.601-.721.24-1.562.841-2.463 1.562-.06.06-.18.12-.24.18s-.18.12-.24.18c-.841.721-1.622 1.502-2.283 2.162-.06.06-.12.18-.18.24s-.12.18-.18.24c-.481.601-.841 1.081-.781 1.261v.24c0 .901.06 1.442.961 1.682 0 0 .841-.961 1.502-1.382.06-.06.18-.12.24-.18s.18-.12.24-.12c.661-.36 1.562-.721 2.643-1.021l.18-.06.3-.06.3.269h.06c1.382-.749 2.763-1.11 3.844-1.201h.3l-.058-.868z" fill="#231F20" data-color="1"></path>
        <path d="M111.773 12.705l-.3-.661.12.661h.18z" fill="#231F20" data-color="1"></path>
        <path d="M112.898 12.891c-.062-.062-.311-.186-.684-.186h-.621c-.186 0-.311.062-.497.062-.994.186-2.237.497-3.418.87l-.249.062-.311.062-.311.062a13.714 13.714 0 0 0-2.672.994c-.124.062-.186.124-.249.186-.124.062-.186.124-.249.186a4.231 4.231 0 0 0-.746.746c-.373.497-.497 1.119-.497 1.802 0 .311.124 1.119.373 1.616.062.124.124.186.186.249l.062.062c.062 0 .124.062.249.062.435.124 1.429.186 3.107.186h1.243c2.548-.062 4.66-.435 5.158-.87.186-.186.373-.559.559-1.056.062-.124.062-.186.062-.311 0-.124.062-.186.062-.311.124-.559.124-1.119.124-1.802-.122-1.366-.432-2.422-.681-2.671z" fill="#231F20" data-color="1"></path>
        <path d="M96.756 53.823c-.12-.06-.18-.06-.3-.12s-.18-.06-.3-.12a67.429 67.429 0 0 0-8.049-3.003c-.12 0-.24 0-.3.06-3.364.481-5.166 4.445-5.707 6.007-.12.24-.18.42-.18.541a70.644 70.644 0 0 1 11.173 3.904c.06-.18.781-4.025 3.003-5.827.12-.06.18-.18.3-.24s.18-.12.3-.18c.3-.18.661-.3 1.081-.42-.3-.302-.66-.482-1.021-.602z" fill="#231F20" data-color="1"></path>
    </g>
</svg>